<?xml version="1.0" encoding="UTF-8" standalone="no"?>
<!DOCTYPE svg PUBLIC "-//W3C//DTD SVG 20010904//EN"
              "http://www.w3.org/TR/2001/REC-SVG-20010904/DTD/svg10.dtd">

<svg xmlns="http://www.w3.org/2000/svg"
     width="13.3333in" height="7.15556in"
     viewBox="0 0 1200 644">
  <path id="Selection"
        fill="rgba(0,0,0,0.9)" stroke="black" stroke-width="2"
        d="M 0.00,0.00
           C 0.00,0.00 176.00,0.00 176.00,0.00
             176.00,0.00 176.00,644.00 176.00,644.00
             176.00,644.00 0.00,644.00 0.00,644.00
             0.00,644.00 0.00,0.00 0.00,0.00 Z
           M 380.00,134.00
           C 380.00,140.28 379.97,149.84 375.58,154.79
             372.25,158.55 364.83,161.20 360.00,162.35
             347.01,165.44 326.53,165.29 315.00,157.91
             297.54,146.72 297.79,130.23 298.00,112.00
             298.32,84.94 315.64,53.97 341.00,43.23
             352.05,38.55 357.49,38.98 369.00,39.00
             376.90,39.01 392.95,41.69 396.13,50.04
             397.46,53.06 396.62,56.92 396.13,60.00
             395.46,62.63 394.75,66.61 392.57,68.39
             387.97,72.13 383.33,65.38 376.00,62.48
             367.81,59.23 357.36,60.93 350.00,65.47
             335.00,74.72 324.08,100.61 325.09,118.00
             325.90,131.88 333.45,141.83 348.00,142.00
             354.18,142.07 358.13,141.85 364.00,139.54
             371.52,136.57 371.07,134.23 380.00,134.00 Z
           M 776.00,72.00
           C 776.23,67.10 777.85,52.70 782.14,50.17
             784.86,48.58 791.70,48.98 795.00,49.00
             797.61,49.02 801.37,48.74 802.94,51.31
             804.64,54.12 801.08,68.47 800.00,72.00
             803.46,72.00 817.26,71.32 819.40,73.02
             821.36,74.58 820.89,77.84 820.56,80.00
             819.50,86.88 818.52,90.87 811.00,91.00
             811.00,91.00 796.00,91.00 796.00,91.00
             796.00,91.00 790.00,123.00 790.00,123.00
             789.23,126.87 787.37,134.30 788.31,137.98
             791.56,150.65 808.12,133.51 806.82,148.00
             806.46,152.04 804.87,157.82 801.78,160.57
             797.90,164.02 791.88,163.99 787.00,164.00
             778.68,164.01 769.98,164.28 765.09,155.98
             761.20,149.41 762.01,142.14 763.00,135.00
             763.00,135.00 772.00,91.00 772.00,91.00
             769.48,91.00 762.43,91.44 760.60,89.98
             757.43,87.45 760.73,75.08 763.65,72.99
             765.72,71.51 773.22,72.00 776.00,72.00 Z
           M 450.82,150.00
           C 440.37,160.54 433.98,164.07 419.00,164.00
             399.94,163.91 393.51,147.82 394.04,131.00
             394.72,109.81 404.59,80.39 426.00,72.12
             431.98,69.81 436.76,69.93 443.00,70.00
             452.78,70.12 457.92,73.56 465.00,80.00
             466.74,70.97 467.60,70.78 480.00,71.00
             482.36,71.05 485.53,70.94 486.84,73.31
             487.93,75.13 487.17,78.05 486.84,80.00
             486.84,80.00 483.80,95.00 483.80,95.00
             483.80,95.00 475.00,139.00 475.00,139.00
             475.00,139.00 470.49,159.77 470.49,159.77
             469.82,161.04 469.17,161.67 467.86,162.26
             465.11,163.49 452.72,163.64 450.82,161.40
             448.46,159.06 450.45,152.93 450.82,150.00 Z
           M 529.00,84.00
           C 533.50,78.86 538.40,73.55 545.00,71.13
             548.64,69.80 560.39,68.79 562.59,72.48
             564.24,74.73 562.89,80.40 562.59,83.00
             561.98,85.12 561.40,88.00 560.52,89.95
             557.46,96.75 552.91,92.34 547.00,93.24
             542.90,93.86 539.14,97.11 536.44,100.09
             525.15,112.55 523.76,130.18 520.60,146.00
             517.67,160.63 518.48,162.87 509.00,163.00
             509.00,163.00 503.00,163.00 503.00,163.00
             499.48,162.99 494.22,163.63 493.60,158.94
             493.60,158.94 497.40,137.00 497.40,137.00
             497.40,137.00 507.00,89.00 507.00,89.00
             509.98,74.08 508.89,71.14 519.00,71.00
             519.00,71.00 523.00,71.00 523.00,71.00
             532.07,71.13 531.81,73.39 529.00,84.00 Z
           M 588.00,123.00
           C 588.00,131.78 586.90,142.06 598.00,144.80
             600.22,145.12 604.58,145.01 607.00,144.80
             618.91,144.94 624.10,141.09 630.00,140.34
             634.64,139.76 636.07,141.53 635.54,146.00
             635.14,149.42 633.71,155.04 631.35,157.58
             626.83,162.46 611.52,163.99 605.00,164.00
             588.98,164.02 569.96,164.41 564.49,145.00
             563.45,141.32 563.05,137.81 563.00,134.00
             562.72,109.35 572.24,83.95 596.00,73.31
             604.89,69.33 611.58,69.89 621.00,70.00
             637.40,70.20 649.41,78.63 648.99,96.00
             648.72,107.00 641.75,113.93 632.00,117.98
             617.08,124.19 603.65,123.00 588.00,123.00 Z
           M 691.00,85.00
           C 700.23,75.80 707.43,70.06 721.00,70.00
             721.00,70.00 725.00,70.00 725.00,70.00
             727.96,70.04 730.16,70.09 733.00,71.13
             753.26,78.57 744.69,107.55 741.60,123.00
             741.60,123.00 739.20,135.00 739.20,135.00
             739.20,135.00 735.60,153.00 735.60,153.00
             735.07,155.64 734.59,159.41 732.49,161.26
             730.15,163.32 725.95,163.00 723.00,163.00
             723.00,163.00 718.00,163.00 718.00,163.00
             707.61,162.85 709.48,159.59 712.40,145.00
             712.40,145.00 719.92,107.00 719.92,107.00
             720.83,101.60 721.89,95.15 715.95,92.03
             708.66,88.19 698.87,98.80 695.21,104.00
             686.80,115.93 685.24,132.82 682.40,147.00
             679.68,160.60 680.40,162.87 671.00,163.00
             671.00,163.00 665.00,163.00 665.00,163.00
             661.48,162.99 656.22,163.63 655.60,158.94
             655.60,158.94 659.39,138.00 659.39,138.00
             659.39,138.00 669.00,89.00 669.00,89.00
             671.98,74.08 670.89,71.14 681.00,71.00
             681.00,71.00 685.00,71.00 685.00,71.00
             695.23,71.14 693.02,74.25 691.00,85.00 Z
           M 592.00,108.00
           C 592.00,108.00 607.00,106.96 607.00,106.96
             609.95,106.82 612.17,106.41 615.00,105.56
             626.75,102.04 626.58,93.37 621.77,89.74
             619.76,88.21 617.42,88.08 615.00,88.02
             607.19,87.81 602.50,89.72 597.53,96.01
             594.49,99.85 593.10,103.31 592.00,108.00 Z
           M 438.00,91.42
           C 423.42,96.55 419.82,117.47 420.00,131.00
             420.08,136.90 421.04,142.20 428.00,142.89
             443.18,144.39 453.14,124.39 455.79,112.00
             456.39,109.19 458.07,102.54 457.31,100.00
             454.87,91.86 445.07,90.38 438.00,91.42 Z
           M 676.00,579.00
           C 676.00,579.00 492.00,579.00 492.00,579.00
             489.33,579.01 485.77,578.65 483.70,580.60
             482.09,582.10 479.03,590.35 477.74,593.00
             473.98,600.77 469.82,607.63 463.91,614.00
             445.18,634.21 421.48,644.32 394.00,644.00
             368.72,643.70 344.84,631.68 328.17,613.00
             322.06,606.16 318.20,599.17 314.26,591.00
             312.93,588.24 310.82,581.50 308.58,580.02
             306.71,578.78 303.21,579.00 301.00,579.00
             301.00,579.00 227.00,579.00 227.00,579.00
             214.40,578.85 203.46,571.78 200.53,559.00
             199.84,556.02 199.97,551.16 200.00,548.00
             200.00,548.00 205.59,511.00 205.59,511.00
             205.59,511.00 215.92,448.00 215.92,448.00
             219.35,427.29 218.90,413.16 236.00,398.18
             247.00,388.55 261.36,387.35 275.00,384.12
             275.00,384.12 311.00,375.88 311.00,375.88
             331.65,370.99 344.91,367.58 360.71,351.72
             360.71,351.72 382.60,325.00 382.60,325.00
             382.60,325.00 424.60,272.00 424.60,272.00
             430.55,264.56 438.12,254.32 445.00,248.17
             456.39,238.00 472.77,232.02 488.00,232.00
             488.00,232.00 779.00,232.00 779.00,232.00
             794.63,232.02 811.79,238.86 822.71,250.17
             822.71,250.17 843.02,278.00 843.02,278.00
             843.02,278.00 873.28,321.00 873.28,321.00
             883.58,335.71 895.78,359.51 917.00,357.67
             917.00,357.67 976.00,340.70 976.00,340.70
             990.89,339.09 999.93,347.12 1000.00,362.00
             1000.00,362.00 1000.00,366.00 1000.00,366.00
             1000.00,366.00 998.58,380.00 998.58,380.00
             998.58,380.00 995.00,404.00 995.00,404.00
             995.00,404.00 1200.00,404.00 1200.00,404.00
             1200.00,404.00 1200.00,410.00 1200.00,410.00
             1200.00,410.00 1061.00,410.00 1061.00,410.00
             1061.00,410.00 1018.00,410.00 1018.00,410.00
             1018.00,410.00 995.00,409.00 995.00,409.00
             995.00,409.00 988.72,454.00 988.72,454.00
             988.72,454.00 977.87,535.00 977.87,535.00
             977.07,540.78 976.31,549.75 974.45,555.00
             969.14,570.06 955.70,578.98 940.00,579.00
             940.00,579.00 848.00,579.00 848.00,579.00
             846.55,588.38 841.00,598.25 835.65,606.00
             801.78,655.12 727.93,656.63 691.21,610.00
             684.32,601.25 677.72,590.15 676.00,579.00 Z
           M 691.00,276.00
           C 691.00,276.00 506.00,276.00 506.00,276.00
             494.01,276.02 481.82,280.80 473.09,289.17
             473.09,289.17 459.20,306.00 459.20,306.00
             459.20,306.00 436.61,334.00 436.61,334.00
             436.61,334.00 423.00,351.00 423.00,351.00
             420.59,354.02 416.74,358.35 415.65,362.00
             412.61,372.19 422.96,372.99 430.00,373.00
             430.00,373.00 691.00,373.00 691.00,373.00
             691.00,373.00 691.00,276.00 691.00,276.00 Z
           M 744.00,372.84
           C 744.00,372.84 822.00,372.84 822.00,372.84
             824.55,373.00 827.52,373.06 830.00,372.84
             837.10,370.97 840.01,365.67 836.95,359.00
             836.95,359.00 818.29,332.00 818.29,332.00
             818.29,332.00 797.71,303.00 797.71,303.00
             790.66,293.11 785.57,285.21 774.00,279.90
             763.29,274.98 755.31,276.00 744.00,276.00
             744.00,276.00 744.00,372.84 744.00,372.84 Z
           M 390.00,510.30
           C 382.51,511.71 376.10,513.97 370.00,518.68
             337.95,543.38 352.27,595.47 395.00,597.91
             399.16,598.15 406.02,596.94 410.00,595.64
             448.14,583.19 451.03,529.05 414.00,513.46
             405.80,510.01 398.77,509.43 390.00,510.30 Z
           M 756.00,510.29
           C 733.39,514.04 717.49,531.74 718.01,555.00
             718.57,579.38 741.19,600.93 766.00,597.71
             772.61,596.85 779.35,594.86 785.00,591.29
             811.84,574.34 813.16,535.80 787.00,517.62
             777.68,511.14 767.12,509.23 756.00,510.29 Z" />
</svg>
